<?xml version="1.0" standalone="no"?>
<!DOCTYPE svg PUBLIC "-//W3C//DTD SVG 20010904//EN"
 "http://www.w3.org/TR/2001/REC-SVG-20010904/DTD/svg10.dtd">
<svg version="1.0" xmlns="http://www.w3.org/2000/svg"
 width="1080.000000pt" height="1080.000000pt" viewBox="0 0 1080.000000 1080.000000"
 preserveAspectRatio="xMidYMid meet">

<g transform="translate(0.000000,1080.000000) scale(0.100000,-0.100000)"
fill="#000000" stroke="none">
<path d="M1740 7086 l0 -46 64 0 c98 0 210 -25 258 -57 66 -44 86 -95 98 -243
5 -69 10 -266 10 -437 l0 -313 360 0 360 0 0 485 0 485 168 0 c92 0 208 -6
257 -14 311 -47 465 -209 505 -531 17 -134 7 -306 -24 -402 l-7 -23 370 0 370
0 16 53 c70 235 29 498 -109 690 -120 169 -291 280 -508 332 -222 53 -309 57
-1285 62 l-903 5 0 -46z"/>
<path d="M5630 7086 l0 -44 113 -4 c86 -3 123 -9 158 -25 63 -28 126 -87 141
-131 8 -26 13 -169 15 -464 l4 -428 369 0 368 0 4 413 c6 447 9 471 63 543 14
19 43 43 63 53 42 21 135 41 194 41 l38 0 0 45 0 45 -765 0 -765 0 0 -44z"/>
<path d="M7840 7087 l0 -44 93 -7 c123 -8 160 -20 206 -64 54 -51 61 -94 29
-164 -46 -100 -109 -156 -741 -666 l-189 -152 141 0 141 0 483 388 c552 443
721 573 792 607 28 13 91 31 140 41 50 9 96 18 103 20 9 3 12 17 10 41 l-3 38
-602 3 -603 2 0 -43z"/>
<path d="M2872 5596 c-40 -96 -72 -178 -72 -181 0 -3 8 -5 18 -5 12 0 23 14
33 43 l16 42 77 3 76 3 20 -46 c11 -25 26 -45 35 -45 8 0 15 4 15 8 0 10 -124
313 -138 338 -6 11 -28 -30 -80 -160z m102 26 c14 -37 26 -71 26 -75 0 -4 -25
-7 -55 -7 -30 0 -55 3 -55 7 0 9 52 143 56 143 1 0 14 -30 28 -68z"/>
<path d="M3837 5764 c-5 -8 -119 -282 -138 -331 -7 -19 -5 -23 10 -23 14 0 25
14 37 45 l17 45 78 0 77 0 18 -45 c11 -31 22 -45 35 -45 11 0 19 1 19 3 -1 16
-149 357 -153 351z m36 -151 c15 -37 25 -68 23 -70 -2 -2 -28 -3 -59 -1 l-54
3 26 68 c14 37 28 67 32 67 3 0 18 -30 32 -67z"/>
<path d="M4170 5592 c0 -174 1 -182 20 -182 18 0 20 8 22 122 l3 121 89 -126
c49 -70 91 -127 93 -127 1 0 3 79 3 175 0 149 -2 175 -15 175 -13 0 -15 -20
-15 -121 0 -67 -4 -118 -9 -115 -5 3 -46 59 -91 123 -46 65 -87 122 -91 128
-5 5 -9 -70 -9 -173z"/>
<path d="M5585 5741 c-173 -80 -121 -330 69 -331 186 0 242 254 72 331 -52 23
-90 23 -141 0z m136 -36 c63 -33 90 -132 52 -195 -20 -34 -81 -70 -118 -70
-100 0 -172 114 -128 200 37 71 125 100 194 65z"/>
<path d="M8160 5585 c0 -147 2 -175 15 -175 12 0 15 23 17 126 l3 125 90 -130
c50 -72 93 -130 98 -131 4 0 7 79 7 175 0 167 -1 175 -20 175 -18 0 -20 -8
-22 -121 l-3 -121 -88 126 c-48 69 -90 126 -93 126 -2 0 -4 -79 -4 -175z"/>
<path d="M2420 5580 c0 -144 2 -170 15 -170 12 0 15 14 15 70 0 62 2 70 19 70
12 0 38 -26 71 -70 39 -53 58 -70 76 -70 23 0 22 3 -26 64 -55 70 -58 76 -34
76 8 0 29 13 45 29 23 23 29 38 29 71 0 33 -6 48 -29 71 -27 27 -35 29 -105
29 l-76 0 0 -170z m159 114 c12 -15 21 -34 21 -44 0 -10 -9 -29 -21 -44 -18
-22 -28 -26 -75 -26 l-54 0 0 70 0 70 54 0 c47 0 57 -4 75 -26z"/>
<path d="M3296 5683 c26 -38 56 -79 66 -92 14 -18 18 -42 18 -102 0 -64 3 -79
15 -79 12 0 15 16 15 81 l0 81 60 83 c33 46 60 86 60 89 0 3 -9 6 -19 6 -12 0
-36 -25 -67 -71 l-49 -71 -23 29 c-12 15 -35 47 -50 70 -19 31 -34 43 -50 43
-22 0 -21 -4 24 -67z"/>
<path d="M4620 5580 l0 -170 63 0 c85 0 142 29 174 90 29 55 29 113 0 165 -33
58 -86 85 -169 85 l-68 0 0 -170z m149 122 c52 -26 76 -65 75 -120 -1 -85 -52
-132 -144 -132 l-50 0 0 135 0 135 43 0 c23 0 57 -8 76 -18z"/>
<path d="M5080 5580 c0 -163 1 -170 20 -170 18 0 20 7 20 70 0 93 18 93 85 0
36 -50 56 -69 73 -70 12 0 22 1 22 3 0 2 -22 32 -50 68 -30 38 -45 65 -37 67
50 14 87 56 87 102 0 31 -29 76 -57 89 -13 6 -55 11 -93 11 l-70 0 0 -170z
m160 120 c11 -11 20 -33 20 -50 0 -46 -31 -70 -90 -70 l-50 0 0 70 0 70 50 0
c37 0 55 -5 70 -20z"/>
<path d="M6310 5580 c0 -142 2 -170 15 -170 11 0 15 18 17 78 l3 77 55 -77
c42 -59 61 -78 79 -78 l23 0 -28 38 c-15 20 -43 57 -61 81 -18 24 -33 47 -33
52 0 4 27 44 60 88 55 75 58 81 37 81 -18 0 -37 -18 -78 -76 l-54 -77 -3 77
c-2 59 -6 76 -17 76 -13 0 -15 -28 -15 -170z"/>
<path d="M6680 5580 l0 -170 105 0 c87 0 105 3 105 15 0 12 -16 15 -85 15
l-85 0 0 65 0 65 80 0 c64 0 80 3 80 15 0 12 -16 15 -80 15 l-80 0 0 60 0 60
85 0 c69 0 85 3 85 15 0 12 -18 15 -105 15 l-105 0 0 -170z"/>
<path d="M7100 5580 l0 -170 80 0 c73 0 80 2 80 20 0 18 -7 20 -60 20 l-60 0
0 150 c0 143 -1 150 -20 150 -19 0 -20 -7 -20 -170z"/>
<path d="M7422 5741 c16 -47 144 -341 148 -341 5 0 123 272 146 333 4 12 1 17
-12 17 -15 0 -31 -30 -73 -130 -29 -72 -57 -130 -60 -130 -4 0 -32 59 -61 130
-42 102 -58 130 -73 130 -10 0 -17 -4 -15 -9z"/>
<path d="M7910 5580 c0 -144 2 -170 15 -170 13 0 15 26 15 170 0 144 -2 170
-15 170 -13 0 -15 -26 -15 -170z"/>
<path d="M2170 4868 c-1 -393 -11 -542 -40 -603 -43 -89 -148 -135 -307 -135
l-83 0 0 -45 0 -45 791 0 790 0 -3 43 -3 42 -105 6 c-58 3 -125 12 -150 20
-58 18 -134 90 -151 144 -9 28 -13 162 -16 463 l-5 422 -359 0 -359 0 0 -312z"/>
<path d="M3292 5171 c1 -6 181 -262 398 -570 l395 -560 488 -1 487 0 0 44 0
43 -43 5 c-24 3 -71 18 -105 33 -99 44 -126 78 -550 675 l-237 335 -419 3
c-266 1 -417 -1 -414 -7z"/>
<path d="M6058 4753 l-3 -428 -30 -60 c-50 -99 -128 -135 -297 -135 l-98 0 0
-45 0 -45 775 0 775 0 0 45 0 45 -64 0 c-121 0 -243 57 -282 131 -24 47 -33
208 -34 577 l0 342 -369 0 -370 0 -3 -427z"/>
<path d="M7187 5168 c6 -7 114 -143 240 -303 349 -439 403 -521 403 -611 0
-72 -67 -113 -205 -126 -28 -3 -30 -6 -33 -45 l-3 -43 805 0 806 0 0 44 0 43
-64 6 c-196 18 -345 152 -790 710 l-270 337 -449 0 c-358 0 -447 -3 -440 -12z"/>
</g>
</svg>
